<svg width="44" height="45" viewBox="0 0 44 45" fill="none" xmlns="http://www.w3.org/2000/svg">
<rect x="0.5" y="1" width="43" height="43" rx="11.5" fill="white"/>
<rect x="0.5" y="1" width="43" height="43" rx="11.5" stroke="#B3B3B3"/>
<path fill-rule="evenodd" clip-rule="evenodd" d="M17 18.5C17 15.7377 19.2377 13.5 22 13.5C24.7623 13.5 27 15.7377 27 18.5V19.5H29C30.5 19.5 31 20.22 31 21.1V30.6C31 31.7046 30.1046 32.6 29 32.6H15C13.8954 32.6 13 31.7046 13 30.6V21.1C13 20.22 13.5 19.5 14.85 19.5H17V18.5ZM25 18.5V19.5H19V18.5C19 16.8423 20.3423 15.5 22 15.5C23.6577 15.5 25 16.8423 25 18.5ZM22 22.5C20.8954 22.5 19.944 23.3968 20 24.5C20.037 25.2298 20.4088 25.8007 21 26.0816V27.5C21 27.9142 21.1772 29 22 29C22.8228 29 23 27.9142 23 27.5V26.0816C23.5912 25.8007 23.963 25.2298 24 24.5C24.056 23.3968 23.1046 22.5 22 22.5Z" fill="#1A1A1A"/>
</svg>
