<svg width="44" height="45" viewBox="0 0 44 45" fill="none" xmlns="http://www.w3.org/2000/svg">
<rect x="0.5" y="1" width="43" height="43" rx="11.5" fill="white"/>
<rect x="0.5" y="1" width="43" height="43" rx="11.5" stroke="#B3B3B3"/>
<g clip-path="url(#clip0_8_4765)">
<mask id="mask0_8_4765" style="mask-type:luminance" maskUnits="userSpaceOnUse" x="10" y="10" width="24" height="25">
<path d="M34 10.5H10V34.5H34V10.5Z" fill="white"/>
</mask>
<g mask="url(#mask0_8_4765)">
<path d="M27.9102 13.0525C27.9102 12.8025 27.7402 12.5845 27.4979 12.5239L27.1996 12.4492C26.9007 12.3744 26.6278 12.2197 26.41 12.0017C26.1921 11.7836 26.0376 11.5104 25.9629 11.2113L25.8883 10.913C25.8277 10.6703 25.6099 10.5 25.36 10.5C25.1103 10.5 24.8926 10.67 24.8318 10.9124L24.7567 11.2113C24.6821 11.5103 24.5277 11.7835 24.31 12.0015C24.0923 12.2195 23.8196 12.3743 23.5209 12.4492L23.2226 12.5239C22.9803 12.5845 22.8103 12.8025 22.8103 13.0525C22.8103 13.3025 22.9803 13.5204 23.2226 13.5811L23.5209 13.6557C23.8197 13.7305 24.0927 13.8852 24.3105 14.1033C24.5283 14.3213 24.6829 14.5945 24.7576 14.8937L24.8322 15.1922C24.8927 15.4348 25.1105 15.6049 25.3602 15.6049C25.61 15.6049 25.8277 15.4348 25.8883 15.1922L25.9629 14.8937C26.0376 14.5945 26.1921 14.3213 26.41 14.1033C26.6278 13.8852 26.9007 13.7305 27.1996 13.6557L27.4979 13.5811C27.7402 13.5204 27.9102 13.3025 27.9102 13.0525Z" fill="#1A1A1A"/>
<path d="M34 18C34 17.6572 33.7667 17.3583 33.4341 17.2752L33.0247 17.1728C32.6145 17.0703 32.2399 16.8581 31.9409 16.5591C31.6419 16.2602 31.4298 15.8855 31.3272 15.4753L31.2248 15.0659C31.1417 14.7333 30.8428 14.5 30.5 14.5C30.1572 14.5 29.8584 14.7333 29.7752 15.0659L29.6728 15.4753C29.5703 15.8855 29.3581 16.2602 29.0591 16.5591C28.7602 16.8581 28.3855 17.0703 27.9753 17.1728L27.5659 17.2752C27.2333 17.3583 27 17.6572 27 18C27 18.3428 27.2333 18.6417 27.5659 18.7248L27.9753 18.8272C28.3855 18.9298 28.7602 19.1419 29.0591 19.4409C29.3581 19.7399 29.5703 20.1145 29.6728 20.5247L29.7752 20.9341C29.8584 21.2667 30.1572 21.5 30.5 21.5C30.8428 21.5 31.1417 21.2667 31.2248 20.9341L31.3272 20.5247C31.4298 20.1145 31.6419 19.7399 31.9409 19.4409C32.2399 19.1419 32.6145 18.9298 33.0247 18.8272L33.4341 18.7248C33.7667 18.6417 34 18.3428 34 18Z" fill="#1A1A1A"/>
<path d="M19.7135 15.0138C19.9838 14.3287 21.017 14.3287 21.2873 15.0138L23.2371 20.1693C23.322 20.3847 23.5031 21.1172 23.7328 21.1969L28.4521 23.2758C29.1826 23.5293 29.1826 24.4982 28.4521 24.7517L23.7328 26.3346C23.5031 26.4143 23.322 27.1468 23.2371 27.3622L21.2873 31.9862C21.017 32.6713 19.9838 32.6713 19.7135 31.9862L17.7637 27.3622C17.6788 27.1468 17.4977 26.4143 17.268 26.3346L12.5479 24.7517C11.8174 24.4982 11.8174 23.5293 12.5479 23.2758L17.268 21.1969C17.4977 21.1172 17.6788 20.3847 17.7637 20.1693L19.7135 15.0138Z" fill="#1A1A1A"/>
</g>
</g>
<defs>
<clipPath id="clip0_8_4765">
<rect width="24" height="24" fill="white" transform="translate(10 10.5)"/>
</clipPath>
</defs>
</svg>
