<svg width="44" height="45" viewBox="0 0 44 45" fill="none" xmlns="http://www.w3.org/2000/svg">
<rect x="0.5" y="1" width="43" height="43" rx="11.5" fill="#231F20"/>
<rect x="0.5" y="1" width="43" height="43" rx="11.5" stroke="#231F20"/>
<path d="M26.2222 14C25.4029 14 24.5948 14.192 23.8619 14.5609C23.1291 14.9297 22.4916 15.4652 22 16.125C21.3354 15.233 20.4088 14.5741 19.3514 14.2417C18.2941 13.9092 17.1597 13.92 16.1088 14.2726C15.0579 14.6252 14.1439 15.3017 13.4962 16.2062C12.8485 17.1107 12.5 18.1975 12.5 19.3125C12.5 25.6786 21.2875 30.6989 21.6569 30.9114C21.7616 30.9706 21.8799 31.0011 22 30.9999C22.1202 31.002 22.2387 30.9714 22.3431 30.9114C23.9613 29.9591 25.4791 28.8436 26.8731 27.5822C29.9431 24.802 31.5 22.0218 31.5 19.3125C31.5 17.9035 30.944 16.5523 29.9542 15.556C28.9644 14.5597 27.622 14 26.2222 14Z" fill="#FFB100"/>
</svg>
