<svg width="44" height="45" viewBox="0 0 44 45" fill="none" xmlns="http://www.w3.org/2000/svg">
<rect x="0.5" y="1" width="43" height="43" rx="11.5" fill="#231F20"/>
<rect x="0.5" y="1" width="43" height="43" rx="11.5" stroke="#B3B3B3"/>
<path d="M28.9831 22.2253C28.9595 22.1232 28.9108 22.0285 28.8414 21.9498C28.772 21.871 28.6841 21.8107 28.5855 21.774L24.0043 21.0642L25.1655 14.2619C25.1922 14.1275 25.1749 13.9881 25.1162 13.8642C25.0576 13.7403 24.9605 13.6383 24.8394 13.5732C24.717 13.5085 24.5766 13.4858 24.44 13.5087C24.3033 13.5316 24.1781 13.5988 24.0838 13.6999L15.1759 23.1989C15.1029 23.2743 15.0501 23.3667 15.0223 23.4676C14.9945 23.5686 14.9927 23.6749 15.0169 23.7768C15.0418 23.8783 15.0909 23.9723 15.1601 24.0508C15.2294 24.1294 15.3166 24.1902 15.4145 24.228L19.9957 24.9378L18.8345 31.7401C18.8078 31.8745 18.8251 32.0139 18.8837 32.1378C18.9424 32.2617 19.0395 32.3637 19.1606 32.4288C19.2519 32.4746 19.3526 32.499 19.4549 32.5C19.5413 32.5004 19.6269 32.483 19.7063 32.4489C19.7856 32.4149 19.8571 32.3649 19.9162 32.3021L28.8241 22.8031C28.8971 22.7277 28.9499 22.6353 28.9777 22.5344C29.0055 22.4334 29.0073 22.3271 28.9831 22.2253Z" fill="#FFB100"/>
</svg>
